<svg xmlns="http://www.w3.org/2000/svg" width="500" height="500" viewBox="0 0 500 500">
  <style type="text/css">
    .st0{fill-rule:evenodd;clip-rule:evenodd;fill:#90C0FD;}
    .st1{fill-rule:evenodd;clip-rule:evenodd;fill:#1B1B1B;}
    .st2{fill-rule:evenodd;clip-rule:evenodd;fill:#FFFFFF;}
    .st3{fill-rule:evenodd;clip-rule:evenodd;fill:#DAD4B8;}
  </style>
  <circle class="st0" cx="250" cy="250" r="250"/>
  <g>
    <polygon class="st1" points="235.8,235.8 235.8,178.9 292.6,178.9 349.5,178.9 349.5,122.1 292.6,122.1 235.8,122.1 178.9,122.1
		178.9,178.9 178.9,235.8 178.9,292.6 178.9,349.5 178.9,406.4 235.8,406.4 292.6,406.4 349.5,406.4 349.5,349.5 292.6,349.5
		235.8,349.5 235.8,292.6 	"/>
    <polygon class="st2" points="207.4,207.4 207.4,150.5 264.2,150.5 321.1,150.5 321.1,93.6 264.2,93.6 207.4,93.6 150.5,93.6
		150.5,150.5 150.5,207.4 150.5,264.2 150.5,321.1 150.5,377.9 207.4,377.9 264.2,377.9 321.1,377.9 321.1,321.1 264.2,321.1
		207.4,321.1 207.4,264.2 	"/>
    <rect x="207.4" y="122.1" class="st3" width="113.7" height="28.4"/>
    <rect x="150.5" y="349.5" class="st3" width="170.6" height="28.4"/>
  </g>
</svg>
