<svg xmlns="http://www.w3.org/2000/svg" width="500" height="200" viewBox="0 0 500 200">
  <path d="M208,138.6c-0.8,0.3-1.7,0.4-2.6,0.5c-1.4,0.2-2.6-0.8-2.8-2.2c0-0.2,0-0.4,0-0.6v-13.8c0-11.7-6.9-17.1-17.9-17.1
	c-5,0.1-10.1,0.9-14.8,2.6v7.9c4.4-2,9.1-3,13.9-3c6.6,0,10.1,3.4,10.1,8.2v1.4c-3.3-0.7-6.7-1.1-10.1-1.1c-8,0-17.1,3.1-17.1,12.8
	c0,8,6.5,11.8,13.5,11.8c5.3,0.1,10.5-1.7,14.6-5c1.4,3,4.5,4.8,7.7,4.5c1.9,0,3.7-0.3,5.5-1v-6.2L208,138.6z M194,135
	c-3,3-7,4.6-11.2,4.6c-3.8,0-7.3-1.9-7.3-5.7c0-4.8,5.2-6.4,10.1-6.4c2.9,0.1,5.7,0.4,8.5,1v6.5L194,135z M232.5,146.3
	c4.4,0.1,8.8-0.8,12.8-2.6v-7.9c-3.4,1.9-7.3,3-11.3,3c-7.1,0-12.8-5.7-12.8-12.8c0-7.1,5.7-12.8,12.8-12.8c3.8,0,7.6,1.1,10.7,3.2
	v-7.9c-3.6-2-7.8-3.1-11.9-3c-11-0.7-20.6,7.6-21.3,18.7c0,0.7-0.1,1.3,0,2c-0.3,10.8,8.2,19.8,19,20.1c0.6,0,1.3,0,1.9,0
	L232.5,146.3z M267.9,121.5c-8,0-17.1,3.1-17.1,12.8c0,8,6.5,11.8,13.5,11.8c5.3,0.1,10.5-1.7,14.6-5c1.4,3,4.5,4.8,7.7,4.5
	c1.9,0,3.7-0.3,5.5-1v-6.2c-0.8,0.3-1.7,0.4-2.6,0.5c-1.4,0.2-2.6-0.8-2.8-2.2c0-0.2,0-0.4,0-0.6v-13.8c0-11.7-6.9-17.1-17.9-17.1
	c-5,0.1-10.1,0.9-14.8,2.6v7.9c4.4-2,9.1-3,13.9-3c6.6,0,10.1,3.4,10.1,8.2v1.4c-3.3-0.7-6.7-1.1-10.1-1.1L267.9,121.5z M278,135.1
	c-3,3-7,4.6-11.2,4.6c-3.8,0-7.3-1.9-7.3-5.7c0-4.8,5.2-6.4,10.1-6.4c2.9,0.1,5.7,0.4,8.5,1v6.5L278,135.1z M295.5,126
	c-0.7,10.6,7.4,19.7,18,20.3c0.4,0,0.8,0,1.2,0c5.8,0.1,11.3-2.5,14.8-7.2v6.1h7.7V88.9h-8.5v22.7c-3.5-4-8.6-6.2-13.9-6
	c-10.6,0-19.2,8.6-19.2,19.2C295.6,125.2,295.6,125.6,295.5,126L295.5,126z M328.6,121.2v9.4c-2.1,4.9-7,8.1-12.3,8.1
	c-7.1,0-12.8-5.7-12.8-12.8c0-7.1,5.7-12.8,12.8-12.8C321.6,113.1,326.4,116.3,328.6,121.2L328.6,121.2z M367.5,146.3
	c4.8,0.1,9.5-0.8,13.8-2.6v-7.4c-3.8,1.8-8,2.7-12.2,2.7c-7.1,0-13.8-2.9-14.8-9.8h29.1c2.5-11.2-2.8-23.6-18.2-23.6
	c-10.7-0.1-19.5,8.4-19.6,19.1c0,0.4,0,0.8,0,1.3C345.6,139.6,355.7,146.4,367.5,146.3L367.5,146.3z M365.6,112.8
	c5-0.6,9.5,3,10.1,8c0.1,0.7,0.1,1.3,0,2h-21.4c0.3-5.8,5.2-10.3,11.1-10C365.5,112.7,365.6,112.7,365.6,112.8L365.6,112.8z
	 M444.4,121.3v23.9h8.5v-24.1c0.8-7.8-4.9-14.7-12.7-15.5c-0.6-0.1-1.3-0.1-1.9-0.1c-5.2,0.1-10.2,2.4-13.7,6.2
	c-2.6-4.1-7.2-6.5-12.1-6.2c-4.9,0.1-9.6,2.2-12.8,5.9v-4.8H392v38.5h8.5V119c2.3-3.4,6.1-5.6,10.2-5.9c4.1-0.2,7.5,2.9,7.7,7
	c0,0.4,0,0.7,0,1.1v23.9h8.5V121c0-0.9,0-1.8,0-2.6c2.3-3.1,5.8-5,9.6-5.2c4.1-0.2,7.5,2.9,7.7,7c0,0.4,0,0.7,0,1.1L444.4,121.3z
	 M499.9,106.6h-9l-11.5,29.1l-13-29.1h-9.2l18.4,39l-0.8,1.9c-2.3,6-5.4,9-9.6,9c-1.3,0-2.7-0.2-3.9-0.6v7.3
	c1.7,0.4,3.4,0.6,5.1,0.6c5.9,0,11.4-3.4,15.6-13.5L499.9,106.6L499.9,106.6z M178.1,52c2.3-3.8,6.4-6.2,10.8-6.5
	c4.7-0.3,8.8,3.2,9.2,7.9c0,0.5,0,0.9,0,1.4v22.8h8.5V53.7c0.4-8.3-6-15.4-14.3-15.8c-0.6,0-1.1,0-1.7,0c-4.7,0-9.2,1.9-12.5,5.3
	v-22h-8.5v56.4h8.5L178.1,52L178.1,52z M221.6,65.8c0,9,5.8,12.8,13.3,12.8c3.5,0,7-0.6,10.4-1.7v-7.5c-2.5,1-5.1,1.5-7.8,1.5
	c-5,0-7.3-1.7-7.3-6.8V46.5h14V39h-14V25.2l-8.5,2.1V39h-6.9v7.6h6.9L221.6,65.8L221.6,65.8z M263.8,51.5c2.3-3.4,6.1-5.6,10.2-5.9
	c4.1-0.2,7.5,2.9,7.7,7c0,0.4,0,0.7,0,1.1v23.9h8.5V53.4c0-0.9,0-1.8,0-2.6c2.3-3.1,5.8-5,9.6-5.2c4.1-0.2,7.5,2.9,7.7,7
	c0,0.4,0,0.7,0,1.1v23.9h8.5V53.4c0.8-7.8-4.9-14.7-12.7-15.5c-0.6-0.1-1.3-0.1-1.9-0.1c-5.2,0.2-10,2.4-13.5,6.2
	c-2.6-4.1-7.2-6.5-12.1-6.2c-4.9,0.1-9.6,2.2-12.8,5.9V39h-7.6v38.5h8.5V51.5z M328.6,21.2h8.5v56.4h-8.5V21.2z M67.5,14.5L0,21.6
	v123.7l67.5,40.2l67.5-40.2V21.6l-66.7-7.1L67.5,14.5L67.5,14.5z M126.1,140.3l-58.7,34.9L8.8,140.3V89.6l58.4,34.6v6.3l-40-23.7
	v6.1l40.2,24.2v6.5l-40.2-23.9v6.1l40.2,24.2l40.6-24.3v-6.1l0,0v-20L126,88.7L126.1,140.3L126.1,140.3z M126.1,82.2l-16.1,9.4
	l-7.4,4.3l-35.3-21V81l30.2,17.9h-0.3l-0.6,0.4l-4.3,2.5L67.5,87v6.1l19.7,11.7l-4.7,3.1l0,0l-14.9-8.5v6.1l9.7,5.7l-10,6L9.3,82.7
	l58.2-35l0,0l58.9,34.2L126.1,82.2z M126.1,76l-59-34.8l0,0L8.8,76V29.5l58.7-6.2l58.7,6.2L126.1,76L126.1,76z"/>
</svg>
